<svg xmlns="http://www.w3.org/2000/svg" width="18" height="19" viewBox="0 0 18 19" fill="none">
  <path d="M11.7389 12.1416C11.6316 12.1288 11.4844 12.0941 11.3572 12.1854C11.2282 12.2767 11.1209 12.3753 11.0028 12.4392C10.8629 12.514 10.7429 12.6071 10.6175 12.6473C10.463 12.6966 10.314 12.6454 10.1831 12.6436C10.025 12.6418 9.89962 12.6327 9.77967 12.5615C9.65972 12.4884 9.51978 12.4227 9.44344 12.2858C9.37801 12.169 9.39982 12.0083 9.36893 11.8495C9.34348 11.7181 9.2726 11.5793 9.2726 11.4205C9.2726 11.2215 9.26715 11.2215 9.26715 11.0225C9.26715 10.8235 9.24716 10.8235 9.24716 10.6245C9.24716 10.4256 9.29805 10.4274 9.29805 10.2284C9.29805 10.0294 9.27442 10.0312 9.27442 9.83226C9.27442 9.63327 9.28532 9.6351 9.28532 9.43794C9.28532 9.24078 9.23625 9.24078 9.23625 9.04362C9.23625 8.84646 9.24171 8.84646 9.24171 8.6493C9.24171 8.4996 9.26533 8.36999 9.29441 8.27871C9.3344 8.15274 9.45616 8.13449 9.5852 8.09433C9.67608 8.06512 9.77785 8.01765 9.9287 8.01765C10.145 8.01765 10.145 8.05599 10.3631 8.05599C10.5812 8.05599 10.5793 7.95558 10.7974 7.95558C11.0155 7.95558 11.0137 7.95193 11.23 7.95193C11.4099 7.95193 11.5444 7.99209 11.6316 7.91907C11.7153 7.8497 11.728 7.72374 11.7516 7.53205C11.7661 7.4207 11.7643 7.2856 11.7643 7.11765C11.7643 6.9497 11.8188 6.79453 11.8043 6.67952C11.7789 6.47688 11.7189 6.33814 11.6298 6.27242C11.5353 6.20305 11.3827 6.21218 11.1955 6.21218C10.9592 6.21218 10.9592 6.17384 10.7211 6.17384C10.483 6.17384 10.4848 6.17384 10.2468 6.17384C10.0087 6.17384 10.0105 6.25599 9.77422 6.25599C9.59247 6.25599 9.49433 6.14646 9.418 6.05883C9.34167 5.9712 9.27987 5.86167 9.27987 5.68642C9.27987 5.51116 9.3144 5.50934 9.31622 5.33226C9.31986 5.15518 9.28896 5.15518 9.28896 4.9781C9.28896 4.80102 9.30713 4.80102 9.30713 4.62394C9.30713 4.44686 9.24898 4.30812 9.15629 4.22232C9.06723 4.13834 8.9291 4.07445 8.74918 4.07445C8.61287 4.07445 8.48928 4.11826 8.37842 4.13104C8.24211 4.14564 8.13125 4.18763 8.02583 4.22597C7.90225 4.27161 7.77321 4.29169 7.68415 4.37566C7.60055 4.45599 7.53149 4.56552 7.46969 4.68784C7.40063 4.83023 7.38064 4.98905 7.31158 5.10771C7.23161 5.2428 7.15528 5.37607 7.07167 5.48378C6.97717 5.60426 6.86812 5.7138 6.75907 5.80873C6.65003 5.90548 6.51008 5.9712 6.38104 6.04788C6.26109 6.11907 6.13024 6.19392 5.98666 6.25416C5.85944 6.3071 5.69587 6.28702 5.54684 6.33631C5.40326 6.38195 5.33056 6.50609 5.25059 6.58094C5.15972 6.66491 5.09066 6.75254 5.06158 6.89128C5.03795 6.99899 5.01978 7.12313 5.01978 7.271C5.01978 7.47729 5.01978 7.63794 5.05612 7.74747C5.11792 7.94463 5.25786 7.99027 5.42507 7.99027C5.62862 7.99027 5.62862 8.0213 5.83217 8.0213C6.03573 8.0213 6.03573 8.04138 6.23928 8.04138C6.44284 8.04138 6.58823 8.12353 6.58823 8.33347C6.58823 8.54341 6.63003 8.54889 6.63003 8.76431C6.63003 8.97972 6.57915 8.97972 6.57915 9.19514C6.57915 9.41055 6.57006 9.41055 6.57006 9.62414C6.57006 9.83773 6.59187 9.83773 6.59187 10.0531C6.59187 10.2686 6.57006 10.2667 6.57006 10.4803C6.57006 10.6939 6.5955 10.6939 6.5955 10.9093C6.5955 11.1248 6.55188 11.1229 6.55188 11.3365C6.55188 11.5501 6.55188 11.5501 6.55188 11.7655C6.55188 11.9043 6.59914 12.0375 6.60459 12.1671C6.61186 12.3059 6.65548 12.4355 6.67002 12.5633C6.68456 12.702 6.67729 12.8335 6.70091 12.9576C6.72636 13.0945 6.7827 13.215 6.81905 13.3355C6.85903 13.4688 6.84086 13.6185 6.89356 13.7335C6.95172 13.8594 7.02624 13.9744 7.10075 14.0767C7.18072 14.1862 7.27523 14.2866 7.37337 14.3706C7.47333 14.4582 7.5951 14.5166 7.71323 14.5787C7.82773 14.639 7.94768 14.6937 8.08036 14.7321C8.20213 14.7686 8.33116 14.816 8.46747 14.8343C8.60742 14.8525 8.74918 14.8124 8.88185 14.8197C9.02361 14.827 9.1581 14.8343 9.29078 14.827C9.43072 14.8197 9.57066 14.8471 9.70152 14.8252C9.83965 14.8014 9.95233 14.6937 10.0795 14.6536C10.2122 14.6116 10.3576 14.617 10.4794 14.5586C10.603 14.4984 10.7066 14.4053 10.8174 14.3268C10.9283 14.2483 11.0701 14.2045 11.1718 14.1095C11.27 14.0164 11.3281 13.8813 11.4154 13.7736C11.499 13.6696 11.5771 13.5564 11.6498 13.4377C11.7207 13.3245 11.8061 13.2132 11.8679 13.0872C11.9261 12.9667 11.9333 12.8207 11.9842 12.6893C12.0388 12.545 12.0787 12.43 12.0369 12.326C11.9861 12.2037 11.8734 12.1525 11.7389 12.1379V12.1416Z" fill="current"/>
</svg>