<?xml version="1.0" encoding="UTF-8"?><svg id="Layer_1" xmlns="http://www.w3.org/2000/svg" viewBox="0 0 99.04 98.6"><path d="m64.59,63.77c-.59-.07-1.4-.26-2.1.24-.71.5-1.3,1.04-1.95,1.39-.77.41-1.43.92-2.12,1.14-.85.27-1.67-.01-2.39-.02-.87-.01-1.56-.06-2.22-.45-.66-.4-1.43-.76-1.85-1.51-.36-.64-.24-1.52-.41-2.39-.14-.72-.53-1.48-.53-2.35,0-1.09-.03-1.09-.03-2.18s-.11-1.09-.11-2.18.28-1.08.28-2.17-.13-1.08-.13-2.17.06-1.08.06-2.16-.27-1.08-.27-2.16.03-1.08.03-2.16c0-.82.13-1.53.29-2.03.22-.69.89-.79,1.6-1.01.5-.16,1.06-.42,1.89-.42,1.19,0,1.19.21,2.39.21s1.19-.55,2.39-.55,1.19-.02,2.38-.02c.99,0,1.73.22,2.21-.18.46-.38.53-1.07.66-2.12.08-.61.07-1.35.07-2.27s.3-1.77.22-2.4c-.14-1.11-.47-1.87-.96-2.23-.52-.38-1.36-.33-2.39-.33-1.3,0-1.3-.21-2.61-.21s-1.3,0-2.61,0-1.3.45-2.6.45c-1,0-1.54-.6-1.96-1.08-.42-.48-.76-1.08-.76-2.04s.19-.97.2-1.94c.02-.97-.15-.97-.15-1.94s.1-.97.1-1.94-.32-1.73-.83-2.2c-.49-.46-1.25-.81-2.24-.81-.75,0-1.43.24-2.04.31-.75.08-1.36.31-1.94.52-.68.25-1.39.36-1.88.82-.46.44-.84,1.04-1.18,1.71-.38.78-.49,1.65-.87,2.3-.44.74-.86,1.47-1.32,2.06-.52.66-1.12,1.26-1.72,1.78-.6.53-1.37.89-2.08,1.31-.66.39-1.38.8-2.17,1.13-.7.29-1.6.18-2.42.45-.79.25-1.19.93-1.63,1.34-.5.46-.88.94-1.04,1.7-.13.59-.23,1.27-.23,2.08,0,1.13,0,2.01.2,2.61.34,1.08,1.11,1.33,2.03,1.33,1.12,0,1.12.17,2.24.17s1.12.11,2.24.11,1.92.45,1.92,1.6.23,1.18.23,2.36-.28,1.18-.28,2.36-.05,1.18-.05,2.35.12,1.17.12,2.35-.12,1.17-.12,2.34.14,1.17.14,2.35-.24,1.17-.24,2.34,0,1.17,0,2.35c0,.76.26,1.49.29,2.2.04.76.28,1.47.36,2.17.08.76.04,1.48.17,2.16.14.75.45,1.41.65,2.07.22.73.12,1.55.41,2.18.32.69.73,1.32,1.14,1.88.44.6.96,1.15,1.5,1.61.55.48,1.22.8,1.87,1.14.63.33,1.29.63,2.02.84.67.2,1.38.46,2.13.56.77.1,1.55-.12,2.28-.08.78.04,1.52.08,2.25.04.77-.04,1.54.11,2.26-.01.76-.13,1.38-.72,2.08-.94.73-.23,1.53-.2,2.2-.52.68-.33,1.25-.84,1.86-1.27.61-.43,1.39-.67,1.95-1.19.54-.51.86-1.25,1.34-1.84.46-.57.89-1.19,1.29-1.84.39-.62.86-1.23,1.2-1.92.32-.66.36-1.46.64-2.18.3-.79.52-1.42.29-1.99-.28-.67-.9-.95-1.64-1.03Z"/><path d="m98.84,48.39c-.02-.15-.06-.31-.07-.43-.02-.83-.04-1.67-.09-2.5l-.03-.76c-.02-.58-.05-1.16-.11-1.72-.02-.18,0-.37,0-.55.01-.66.01-1.32-.08-1.96-.15-1.09-.58-1.94-.88-2.49.05-.59.1-1.45-.12-2.43-.06-.24-.1-.49-.14-.74-.1-.59-.21-1.18-.37-1.74-.17-.61-.41-1.21-.67-1.79-.08-.19-.17-.37-.23-.55-.24-.76-.58-1.39-.82-1.86-.08-.15-.17-.31-.24-.48-.08-.22-.14-.44-.21-.66-.17-.59-.36-1.17-.61-1.75-.24-.54-.52-1.07-.8-1.59l-.36-.67c-.1-.2-.18-.41-.27-.62-.24-.59-.5-1.17-.8-1.71-.47-.81-1.01-1.38-1.41-1.81-.09-.1-.19-.19-.22-.22-.35-.54-.76-1.03-1.17-1.52-.16-.19-.3-.32-.3-.32l-.13-.29c-.24-.55-.61-1.39-1.3-2.19-.44-.52-.93-1-1.42-1.47l-.43-.42c-.82-.82-1.68-1.23-2.26-1.51l-.17-.08c-.43-.36-.88-.68-1.33-1l-.93-.68c-.55-.42-1.1-.84-1.69-1.23-.14-.09-.26-.21-.38-.31-.4-.34-.95-.82-1.67-1.23-.52-.3-1.07-.56-1.61-.82l-.29-.14c-.46-.5-1.21-1.32-2.42-1.85-1.08-.47-2.08-.52-2.93-.52-.06-.03-.13-.07-.19-.1-.58-.29-1.16-.57-1.78-.77-.24-.08-.48-.16-.72-.25-.55-.2-1.1-.4-1.67-.55-.22-.06-.44-.14-.66-.22-.57-.2-1.15-.4-1.73-.53-.84-.19-1.58-.21-2.13-.21h-.11c-.1,0-.2,0-.26,0-.15-.04-.31-.1-.46-.15-.5-.17-1.18-.39-1.98-.51-.22-.03-.44-.09-.66-.14-.6-.14-1.21-.26-1.81-.32-.91-.09-1.68.02-2.25.09-.12.02-.25.04-.26.05-.94-.05-1.76.1-2.29.2-.05,0-.1.02-.13.03l-.1-.03c-.56-.16-1.43-.4-2.45-.37h-.79c-.57,0-1.14,0-1.71.03-.62.04-1.23.15-1.85.27-.2.04-.41.09-.61.11-.2.02-.42.01-.62.01-.63-.01-1.26.01-1.87.1-.64.09-1.26.26-1.89.45-.18.06-.36.12-.39.13-.11,0-.23,0-.35,0-.55-.02-1.38-.05-2.32.17-.82.19-1.64.4-2.44.62-.94.26-1.67.68-2.15.96-.1.06-.19.12-.16.12-.84.27-1.48.65-1.96.93-.12.07-.23.14-.32.18-.16.06-.34.09-.51.13-.5.12-1.18.29-1.91.61-.73.32-1.31.7-1.74.98-.06.04-.12.08-.19.12-.64.08-1.71.22-2.8.85-.6.35-1.18.73-1.76,1.12l-.41.28c-.7.46-1.38.97-2.11,1.53-.52.39-1,.85-1.46,1.31-.15.15-.31.31-.48.46l-.4.34c-.53.45-1.06.91-1.55,1.41-.15.15-.31.28-.47.42-.51.44-1.01.89-1.45,1.39-.72.83-1.08,1.68-1.32,2.25l-.38.58c-.39.5-.78,1-1.05,1.42-.07.09-.16.16-.24.24-.41.4-1.02,1.01-1.51,1.87-.53.92-.71,1.82-.81,2.6-.42.45-.98,1.12-1.38,2.03-.32.73-.49,1.41-.61,1.91-.03.11-.05.23-.08.34l-.09.12c-.36.5-.9,1.24-1.24,2.29-.31.96-.34,1.83-.36,2.4l.02.13c-.21.78-.39,1.56-.59,2.43-.05.21-.12.41-.19.62-.19.59-.37,1.19-.48,1.79-.19,1.04-.09,1.92-.02,2.51v.06s-.03.09-.03.09c-.2.52-.5,1.32-.6,2.3-.09.85,0,1.58.05,2.11,0,.02,0,.05,0,.08-.27.61-.67,1.56-.69,2.77-.01.65.06,1.3.16,1.96.02.18.06.35.07.53.02.9.2,1.63.33,2.17v.03c-.19.63-.46,1.62-.34,2.8.06.63.21,1.27.37,1.9.05.19.1.37.13.57.14.97.48,1.74.74,2.28-.11.65-.22,1.6.02,2.68.25,1.11.75,1.92,1.09,2.45l.08.14c.15.52.32,1.04.49,1.56l.19.57c.19.59.45,1.15.71,1.71.09.19.18.37.2.37,0,0,0,0,0,0l.04.31c.07.58.18,1.47.6,2.42.26.61.61,1.17.96,1.73.1.16.21.32.3.49l.32.67c.25.55.51,1.09.82,1.64.52.91,1.17,1.51,1.59,1.91l.39.5c.37.56.73,1.12,1.14,1.66.14.19.27.38.41.57.26.37.52.74.8,1.09.23.68.61,1.81,1.61,2.81.66.66,1.35,1.08,1.85,1.39.13.08.25.14.25.14.09.09.18.2.26.31.37.45.88,1.07,1.63,1.64,1.1.83,2.26,1.05,3.17,1.17.42.26.86.52,1.37.81l.09.1c.41.44,1.1,1.17,2.16,1.7.82.41,1.58.59,2.13.72.13.03.26.06.31.07.56.24,1.13.45,1.7.66l.41.15.1.07c.47.36,1.26.97,2.37,1.34l.6.2c.6.2,1.2.4,1.79.56.79.22,1.51.28,2.03.32.16.01.33.02.4.03.12.04.24.1.37.15.52.22,1.22.52,2.1.69.82.15,1.66.27,2.48.39.99.14,1.85,0,2.58-.2.59.28,1.4.58,2.4.64.91.04,1.66-.08,2.22-.17.13-.02.25-.05.2-.06.13.02.25.05.38.08.52.11,1.22.26,2.07.26h.14c1.14-.03,2.05-.39,2.81-.73.03,0,.06,0,.1,0,.52.04,1.22.11,2.03.02.83-.08,1.65-.17,2.23-.27l.32.03c.57.06,1.44.15,2.45-.04.58-.11,1.16-.27,1.73-.44.23-.07.46-.14.69-.19.24-.06.49-.09.73-.13.59-.1,1.17-.2,1.75-.36,1.15-.32,1.97-.93,2.64-1.46l.24-.08c.58-.18,1.15-.36,1.73-.57l.47-.18c.46-.17.91-.34,1.35-.52.72,0,1.88-.02,3.12-.64.93-.47,1.57-1.12,2.07-1.73.66-.12,1.52-.36,2.38-.92.72-.47,1.25-1,1.65-1.39.11-.11.23-.23.33-.32.82-.62,1.34-1.35,1.68-1.88.66-.25,1.56-.65,2.37-1.47.71-.71,1.14-1.46,1.42-1.96.06-.1.11-.21.1-.21.52-.61.88-1.19,1.16-1.66.1-.16.2-.33.3-.47.52-.69,1.01-1.38,1.48-2.1.47-.71.91-1.42,1.36-2.19.3-.52.55-1.07.79-1.61.1-.22.2-.44.2-.49l.2-.25c.37-.44.93-1.12,1.34-2.06.36-.83.51-1.59.61-2.15,0-.02,0-.04,0-.06.42-.5,1.06-1.29,1.44-2.43.36-1.12.32-2.13.3-2.74v-.13c.11-.47.19-.94.27-1.42,0-.03,0-.06.01-.09.48-.59,1.19-1.55,1.44-2.91.21-1.18.01-2.19-.19-3.03.09-.67.16-1.33.22-1.99.02-.16.07-.32.1-.48.12-.5.29-1.19.31-1.81.02-.11.06-.22.09-.34.15-.53.38-1.34.4-2.31.01-.82-.11-1.53-.2-2.05Zm-8.62,1.97c-.14.51-.34,1.19-.39,2.01-.02.16-.07.32-.1.48-.13.55-.25,1.1-.31,1.66-.07.71-.15,1.41-.25,2.11-.1.73-.05,1.38.05,1.97-.38.53-.79,1.25-1,2.16-.1.42-.17.84-.23,1.26-.04.27-.08.54-.15.81-.22.8-.24,1.51-.23,2.07-.36.45-.81,1.07-1.12,1.9-.22.58-.36,1.19-.47,1.81,0,.05-.02.1-.02.14l-.05.07c-.31.38-.79.96-1.18,1.73-.17.34-.32.68-.48,1.03-.13.28-.25.57-.39.82-.34.6-.7,1.16-1.08,1.74-.37.57-.75,1.1-1.16,1.65-.29.38-.54.78-.79,1.19-.1.17-.19.34-.31.48-.43.5-.74,1-.97,1.39-.57.21-1.33.56-2.04,1.18-.79.68-1.24,1.43-1.55,1.92l-.03.05c-.3.25-.58.52-.85.79,0,0-.01.01-.02.02-.62.1-1.5.28-2.4.8-.69.4-1.2.88-1.61,1.37-.59.04-1.3.16-2.05.49-.47.21-.95.38-1.43.57l-.5.19c-.4.15-.8.27-1.2.4l-.78.24c-.97.32-1.69.83-2.29,1.31-.13.02-.25.04-.38.06-.42.07-.84.14-1.26.23-.42.1-.84.22-1.26.34-.2.06-.4.12-.6.18l-.19-.02c-.51-.05-1.29-.13-2.18,0-.7.1-1.4.17-2.06.24-.16,0-.31-.02-.47-.03-.58-.05-1.15-.09-1.71-.05-.97.06-1.77.35-2.45.65-.47-.1-1.09-.22-1.82-.23h-.14c-.67,0-1.25.09-1.7.17-.56-.28-1.37-.63-2.4-.73-1.09-.11-2.01.12-2.78.35-.51-.07-.99-.15-1.4-.21-.12-.04-.25-.1-.37-.15-.44-.19-1.05-.45-1.8-.62-.54-.12-1.11-.19-1.67-.23-.16-.01-.33-.02-.45-.04-.45-.12-.9-.28-1.35-.43l-.4-.16c-.45-.35-1.14-.88-2.09-1.24l-.8-.29c-.39-.14-.77-.27-1.15-.44-.69-.3-1.33-.45-1.79-.56,0,0-.02,0-.03,0-.39-.41-.96-.98-1.95-1.55-.53-.31-1.04-.6-1.56-.94-.85-.56-1.71-.79-2.46-.91-.33-.39-.68-.77-1.06-1.1-.4-.35-.86-.65-1.32-.94-.21-.59-.56-1.39-1.21-2.15-.22-.25-.4-.52-.58-.78-.19-.28-.39-.55-.59-.82-.29-.38-.53-.76-.79-1.16l-.33-.51c-.48-.73-1.03-1.25-1.4-1.6l-.13-.12c-.12-.24-.23-.48-.34-.72-.14-.31-.29-.62-.44-.93-.22-.44-.49-.87-.76-1.29-.07-.11-.15-.22-.21-.33l-.02-.13c-.06-.51-.15-1.28-.47-2.12-.16-.43-.36-.85-.56-1.27-.1-.21-.22-.43-.29-.65l-.21-.63c-.15-.46-.31-.91-.43-1.37-.21-.78-.54-1.4-.82-1.86.09-.59.16-1.39,0-2.28-.18-.98-.55-1.74-.8-2.24l-.06-.13c-.07-.41-.17-.81-.28-1.21-.01-.06-.03-.12-.05-.18.18-.59.43-1.49.37-2.56-.04-.77-.21-1.43-.32-1.9-.04-.14-.08-.25-.08-.23-.01-.54-.08-1.09-.16-1.64l-.02-.14c.25-.56.6-1.42.66-2.49.04-.61,0-1.22-.07-1.83,0-.08-.02-.16-.03-.23l.05-.14c.18-.47.45-1.18.57-2.03.13-.92.04-1.72-.02-2.25v-.14c.03-.15.08-.3.13-.44.15-.46.3-.92.42-1.47.15-.67.3-1.33.48-1.97.22-.82.26-1.56.28-2.07.32-.44.76-1.07,1.08-1.92.19-.49.32-1.01.45-1.52.02-.08.04-.16.06-.24.39-.41.97-1.02,1.41-1.91.41-.81.56-1.59.65-2.29.34-.34.77-.79,1.15-1.38.22-.33.46-.63.7-.93l.54-.69c.54-.72.84-1.43,1.04-1.91l.04-.1c.11-.1.23-.2.35-.3.33-.29.66-.57.97-.88.33-.33.7-.64,1.06-.95l.44-.38c.32-.28.63-.58.94-.89.17-.17.34-.36.62-.57.51-.38,1.03-.78,1.57-1.14l.47-.31c.28-.19.57-.38.86-.57.58-.07,1.51-.2,2.49-.69.46-.23.9-.51,1.33-.79.15-.1.3-.21.42-.27.16-.06.33-.09.49-.13.52-.13,1.04-.27,1.54-.45.56-.21,1.1-.5,1.62-.81.12-.07.23-.14.26-.16.79-.26,1.39-.61,1.84-.86.1-.06.2-.12.08-.1.68-.19,1.37-.37,1.83-.49.13,0,.23,0,.35,0,.52.02,1.23.04,2.05-.11.51-.09,1.02-.24,1.52-.39.18-.06.37-.12.55-.16.21-.03.42-.01.64-.01.5,0,1,0,1.5-.06.5-.05.99-.14,1.49-.24.21-.04.42-.1.62-.11.37-.02.75-.01,1.12-.01.26,0,.52,0,.78,0l.19.05c.51.14,1.27.35,2.2.37.85,0,1.51-.12,2.01-.21.11-.02.23-.05.12-.06.82.06,1.49-.05,1.99-.12.12-.02.25-.04.19-.05.24.02.48.09.71.14.47.11.93.21,1.35.27.16.03.31.09.46.14.54.18,1.09.35,1.65.45.59.11,1.21.14,1.82.15.13,0,.28,0,.33,0,.25.06.5.15.74.24.43.15.86.3,1.28.41.34.09.67.22,1,.34.33.12.67.24,1,.35.19.07.37.17.55.26.45.22.9.44,1.36.62.75.29,1.45.38,2.09.4.41.41.96.89,1.7,1.26.29.15.58.29.87.42.33.16.67.31.95.47.14.09.26.21.39.31.4.34.81.68,1.25.97.41.27.79.56,1.17.86l.45.34c.26.2.53.38.79.57.27.19.55.37.82.61.72.62,1.45.97,1.93,1.2l.36.31c.25.24.5.48.73.74l.07.16c.2.46.5,1.15,1.04,1.87.24.31.49.62.75.92.18.21.37.41.53.66.33.5.74.97,1.16,1.42.09.1.18.18.18.16.12.21.2.44.29.66.17.42.35.84.55,1.23.16.31.32.61.49.92.17.31.34.62.48.92.1.23.16.47.23.72.13.44.26.88.42,1.29.19.5.43.98.68,1.45.08.16.17.31.23.46.15.47.35.93.55,1.4.09.2.19.39.24.59.08.29.12.6.18.9.05.31.1.61.17.92v.18c-.05.53-.12,1.34.05,2.28.19,1.02.6,1.79.88,2.31v.24c-.02.54-.02,1.08.03,1.63.04.39.05.79.07,1.19l.04.94c.04.71.06,1.43.07,2.14.01.58.1,1.17.2,1.75.02.11.04.21.06.3-.02.06-.04.13-.05.19Z"/></svg>