<svg width="250" height="95" viewBox="0 0 250 95" fill="none" xmlns="http://www.w3.org/2000/svg">
<g clip-path="url(#clip0_733_16059)">
<path d="M38.0192 4.3988C38.9882 3.03081 40.1282 1.89082 41.4392 1.14983C42.6362 0.522833 44.2322 0.522833 46.0561 0.522833C48.8491 0.522833 50.7301 0.465834 51.8701 1.09283C53.1241 1.94782 53.4661 3.54381 53.4661 6.56479C53.4661 9.12976 53.3521 9.12976 53.3521 11.6947C53.3521 14.2597 53.8081 14.2597 53.8081 16.8247C53.8081 19.3897 53.5801 19.3897 53.5801 21.9547C53.5801 24.5196 53.6371 24.5196 53.6371 27.0846C53.6371 29.6496 53.4091 29.6496 53.4091 32.2146C53.4091 34.7796 53.3521 34.7796 53.3521 37.3445C53.3521 39.9095 53.0671 39.9095 53.0671 42.4745C53.0671 45.0395 53.0101 45.0395 53.0101 47.6045C53.0101 50.1694 53.8081 50.1694 53.8081 52.7914C53.8081 55.4134 51.6421 56.0404 53.5801 57.7504C55.8031 59.6884 56.4301 57.4654 59.337 57.4654C62.244 57.4654 62.301 58.2064 65.208 58.2064C68.913 58.2064 69.426 58.7194 69.426 61.4553C69.426 64.0773 69.825 64.0773 69.825 66.6423C69.825 68.0103 69.198 68.5233 67.83 68.5233C65.436 68.5233 65.436 68.6373 63.042 68.6373C60.648 68.6373 60.648 68.6373 58.254 68.6373C55.8601 68.6373 55.0621 66.9843 53.4661 68.8083C51.6991 70.8033 53.3521 71.4873 53.3521 74.1092C53.3521 76.2182 53.6941 78.0422 54.7771 79.4102C55.6891 80.5502 57.285 81.4052 59.622 81.9752C61.104 82.3172 62.928 82.6592 65.094 82.7732C66.975 82.7732 68.115 84.7682 68.115 86.8771C68.115 89.1001 66.861 91.7221 65.094 91.7221C62.472 91.7221 62.472 91.6081 59.85 91.6081C57.2281 91.6081 57.2281 91.3801 54.6061 91.3801C51.9841 91.3801 51.9841 91.8361 49.3621 91.8361C46.7401 91.8361 46.7401 91.0951 44.1182 91.0951C41.4962 91.0951 41.4962 91.8361 38.8742 91.8361C36.2522 91.8361 36.2522 91.3801 33.6302 91.3801C31.0083 91.3801 31.0083 91.3801 28.3293 91.3801C25.6503 91.2661 25.6503 91.4371 23.0283 91.4371C21.3183 91.4371 20.2924 89.0431 20.2924 86.8201C20.2924 84.7112 21.1473 82.2032 23.0283 82.2032C25.1943 82.0892 26.9043 81.6902 28.3293 81.3482C30.6093 80.7782 32.1483 80.3222 33.1172 79.1822C34.2572 77.8712 34.2002 76.1612 34.2002 74.0522C34.2002 71.3733 36.3662 70.8033 34.4852 68.8653C32.6613 66.9843 32.0343 68.6373 29.4123 68.6373C26.7903 68.6373 26.7903 69.1503 24.2253 69.1503C21.6033 69.1503 21.6033 68.7513 18.9814 68.7513C16.3594 68.7513 16.3594 68.3523 13.7374 68.3523C11.1154 68.3523 11.1154 68.9223 8.49345 68.9223C5.87147 68.9223 5.87147 68.2383 3.24949 68.2383C1.02651 68.2383 0.513513 67.6683 0.513513 65.3313C0.513513 63.3933 0.228516 63.3933 0.228516 61.5123C0.228516 58.8904 0.96951 57.1234 2.3375 55.2994C3.81949 53.2474 3.81949 53.3044 5.35847 51.1954C6.84046 49.0864 6.72646 49.0294 8.20845 46.9205C9.69044 44.8115 9.51944 44.6975 11.0014 42.5885C12.5404 40.4225 12.6544 40.5365 14.1934 38.4275C15.7324 36.3185 15.9034 36.4895 17.4424 34.3806C18.9244 32.2716 18.6964 32.1006 20.2354 29.9916C21.7173 27.8826 21.6603 27.8256 23.1423 25.7736C24.6243 23.6646 24.7953 23.7786 26.2773 21.6697C27.8163 19.5607 27.8733 19.6177 29.3553 17.5087C30.8943 15.3997 30.7233 15.2857 32.2053 13.1767C33.7442 11.0677 33.4592 10.8968 34.9412 8.73077C36.4232 6.50779 36.4802 6.50779 38.0192 4.3988ZM12.7684 57.7504C14.0224 60.2014 15.2764 57.5794 18.0124 57.5794C20.7483 57.5794 20.7484 57.9784 23.5413 57.9784C26.3343 57.9784 26.3343 57.7504 29.0703 57.7504C31.8063 57.7504 32.5473 59.7454 34.5992 57.8644C36.5372 56.0404 34.7132 55.2424 34.7132 52.6774C34.7132 50.0554 34.2572 50.0554 34.2572 47.4905C34.2572 44.8685 34.4852 44.8685 34.4852 42.2465C34.4852 39.6245 34.4282 39.6245 34.4282 37.0025C34.4282 34.3806 34.6562 34.3806 34.6562 31.7586C34.6562 29.1366 37.2212 27.0846 34.6562 26.4576C32.0343 25.7736 32.7752 28.5096 31.1793 30.7326C29.6403 32.9556 29.5833 32.9556 27.9873 35.1786C26.4483 37.4015 27.0753 37.8575 25.5363 40.0805C23.9403 42.3605 23.7693 42.1895 22.1733 44.4695C20.5774 46.6925 20.8053 46.8635 19.2094 49.0864C17.6134 51.3664 17.5564 51.3094 15.4474 53.0764C13.2244 55.0144 11.5144 55.2994 12.7684 57.7504Z" fill="black"/>
<path d="M144.494 46.5206C144.494 48.4016 144.038 50.1685 143.924 51.9355C143.81 53.8165 143.867 55.6405 143.696 57.3505C143.468 59.2315 142.613 60.8845 142.328 62.5944C141.986 64.4754 141.815 66.2424 141.302 67.8954C140.789 69.7194 140.675 71.6004 140.048 73.1964C139.364 74.9063 137.939 76.2173 137.027 77.6993C136.058 79.2953 135.602 81.1763 134.462 82.4873C133.265 83.9123 131.612 84.7673 130.244 85.9073C128.819 87.0472 127.565 88.3012 125.969 89.1562C124.373 89.9542 122.834 90.9802 121.067 91.5502C119.357 92.0632 117.476 91.7212 115.652 91.9492C113.942 92.1772 112.175 92.2912 110.294 92.2912C108.413 92.2912 106.703 92.0632 104.936 91.8352C103.112 91.6072 101.231 91.7782 99.5213 91.2652C97.7544 90.7522 96.2724 89.6122 94.7334 88.8142C93.1374 87.9592 91.5984 87.1042 90.2304 85.9643C88.8624 84.8813 87.1524 84.0263 85.9554 82.6013C84.8155 81.2903 84.0175 79.5803 83.1055 77.9843C82.2505 76.5023 81.6805 74.7924 80.9965 73.0254C80.3695 71.4294 79.4575 69.8334 78.9445 68.0094C78.4885 66.3564 78.3175 64.5324 77.9755 62.7084C77.6335 60.9985 77.5195 59.2315 77.3485 57.3505C77.1775 55.6405 77.1205 53.8165 77.0065 51.9355C76.8925 50.1685 76.4365 48.4016 76.4365 46.5206C76.4365 44.6396 77.0065 42.8726 77.1205 41.1626C77.2345 39.2816 77.3485 37.5146 77.5195 35.8047C77.7475 33.9237 77.6905 32.0997 78.0325 30.3897C78.3745 28.5087 78.6025 26.7417 79.0585 25.0317C79.5715 23.2078 79.9705 21.4408 80.5975 19.8448C81.2815 18.1348 82.1365 16.4818 82.9915 14.9428C83.9605 13.3468 85.3855 12.1498 86.5254 10.8389C87.7224 9.41387 89.1474 8.38788 90.5154 7.30488C91.9404 6.16489 93.1374 4.8539 94.7334 3.99891C96.3294 3.20092 98.0394 2.68792 99.8063 2.17492C101.516 1.66193 103.226 1.31993 105.05 1.03493C106.76 0.806935 108.527 0.920935 110.408 0.920935C112.289 0.920935 114.056 0.749936 115.823 0.977934C117.647 1.20593 119.3 1.83293 121.01 2.34592C122.777 2.85892 124.487 3.31492 126.083 4.11291C127.679 4.9679 128.99 6.10789 130.415 7.24788C131.783 8.33088 133.55 9.12887 134.747 10.4969C135.887 11.8078 136.628 13.5178 137.54 15.1708C138.395 16.6528 139.307 18.1918 140.048 19.9588C140.675 21.5548 141.359 23.2648 141.872 25.0887C142.328 26.7417 142.442 28.5657 142.784 30.4467C143.126 32.1567 143.753 33.8667 143.981 35.7477C144.152 37.4576 144.494 39.2816 144.608 41.1626C144.551 42.8156 144.494 44.6396 144.494 46.5206ZM97.3554 46.5206C97.3554 48.2306 96.9564 49.8835 97.0134 51.4795C97.0704 53.2465 97.3554 54.8425 97.4694 56.4385C97.5834 58.2055 97.1844 59.9155 97.3554 61.4545C97.5834 63.2214 98.0964 64.8174 98.4384 66.2994C98.8374 68.0664 99.7493 69.4914 100.262 70.8594C100.889 72.5694 101.003 74.3933 101.801 75.5903C102.827 77.1293 104.423 77.8133 105.734 78.5543C107.159 79.4093 108.584 80.2643 110.294 80.2643C112.004 80.2643 113.543 79.5233 114.968 78.6683C116.279 77.8703 117.077 76.5593 118.103 75.0773C118.901 73.8804 120.269 72.7404 120.896 70.9734C121.409 69.5484 121.865 67.9524 122.207 66.1854C122.549 64.7034 122.948 63.0504 123.176 61.3405C123.404 59.8015 122.948 58.1485 123.119 56.3815C123.233 54.8425 123.803 53.1895 123.86 51.4795C123.917 49.8835 123.803 48.2306 123.803 46.5206C123.803 44.8106 123.176 43.1576 123.119 41.5616C123.062 39.7946 123.29 38.1416 123.176 36.6026C123.062 34.8357 123.176 33.1827 122.948 31.6437C122.72 29.8767 122.15 28.3377 121.808 26.8557C121.409 25.0887 121.238 23.4358 120.725 22.0678C120.098 20.3578 119.471 18.7618 118.673 17.5648C117.647 16.0258 116.45 14.7718 115.196 13.9738C113.771 13.1188 112.061 13.1188 110.351 13.1188C108.641 13.1188 106.874 13.0618 105.449 13.9168C104.138 14.7148 102.884 15.9688 101.858 17.5078C101.06 18.7048 100.547 20.3578 99.9203 22.1248C99.4073 23.5498 99.1793 25.1457 98.7803 26.9127C98.4384 28.3947 98.3813 30.0477 98.1534 31.8147C97.9254 33.3537 97.8114 34.9497 97.6404 36.6596C97.5264 38.1416 96.9564 39.7946 96.8994 41.5046C96.8424 43.1006 97.3554 44.7536 97.3554 46.5206Z" fill="black"/>
<path d="M188.897 4.39869C189.866 3.0307 191.063 1.94771 192.374 1.26371C193.571 0.636719 195.11 0.636719 196.934 0.636719C199.727 0.636719 201.494 0.693718 202.577 1.37771C203.888 2.17571 204.515 3.60069 204.515 6.56467C204.515 9.12965 204.344 9.12965 204.344 11.6946C204.344 14.2596 204.515 14.2596 204.515 16.8246C204.515 19.3896 204.059 19.3896 204.059 21.9545C204.059 24.5195 203.888 24.5195 203.888 27.0845C203.888 29.6495 204.629 29.6495 204.629 32.2145C204.629 34.7794 204.287 34.7794 204.287 37.3444C204.287 39.9094 204.401 39.9094 204.401 42.4744C204.401 45.0394 204.287 45.0394 204.287 47.6043C204.287 50.1693 204.572 50.1693 204.572 52.7913C204.572 55.4133 202.577 56.0403 204.515 57.7503C206.738 59.6883 207.251 57.9213 210.215 57.9213C213.179 57.9213 213.179 58.0923 216.086 58.0923C219.791 58.0923 220.418 58.8333 220.418 61.5692C220.418 64.1912 220.874 64.1912 220.874 66.7562C220.874 68.1242 220.076 69.0932 218.708 69.0932C216.314 69.0932 216.314 68.9792 213.92 68.9792C211.526 68.9792 211.526 69.2072 209.132 69.2072C206.738 69.2072 205.883 67.0412 204.287 68.8082C202.52 70.8032 204.686 71.5442 204.686 74.1661C204.686 76.2751 204.971 77.7571 206.054 79.1251C206.966 80.2651 208.22 81.1201 210.557 81.6901C212.039 82.0321 213.749 82.0891 215.972 82.2031C217.853 82.2031 218.594 84.7681 218.594 86.877C218.594 89.1 217.682 91.608 215.972 91.608C213.35 91.608 213.35 91.437 210.728 91.437C208.106 91.437 208.106 91.209 205.484 91.209C202.862 91.209 202.862 91.437 200.24 91.437C197.618 91.437 197.618 91.437 194.996 91.437C192.374 91.437 192.374 90.924 189.752 90.924C187.13 90.924 187.13 91.323 184.508 91.323C181.886 91.323 181.886 90.981 179.207 90.981C176.585 90.981 176.585 91.437 173.906 91.437C172.196 91.437 171.227 89.043 171.227 86.82C171.227 84.711 172.082 82.2031 173.906 82.2031C176.072 82.0891 177.953 82.4881 179.435 82.1461C181.715 81.5761 183.482 80.6641 184.394 79.5241C185.477 78.2131 185.819 76.2181 185.819 74.1091C185.819 71.4302 187.358 70.7462 185.477 68.8652C183.653 66.9842 182.912 68.4662 180.347 68.4662C177.725 68.4662 177.725 68.6942 175.16 68.6942C172.538 68.6942 172.538 68.9792 169.916 68.9792C167.294 68.9792 167.294 68.5802 164.672 68.5802C162.05 68.5802 162.05 68.9222 159.428 68.9222C156.806 68.9222 156.806 69.2072 154.185 69.2072C151.962 69.2072 151.506 67.7822 151.506 65.4452C151.506 63.5072 150.936 63.5072 150.936 61.6262C150.936 59.0043 151.734 57.1233 153.102 55.2993C154.584 53.1903 154.584 53.1903 156.066 51.0813C157.547 48.9723 157.661 49.0293 159.2 46.9203C160.682 44.8114 160.796 44.8684 162.278 42.7594C163.76 40.6504 163.646 40.5364 165.128 38.4274C166.667 36.3184 166.325 36.0904 167.807 33.9815C169.289 31.8725 169.688 32.1575 171.17 30.0485C172.652 27.9395 172.367 27.7115 173.849 25.6025C175.331 23.4935 175.16 23.3795 176.642 21.2706C178.181 19.1616 178.865 19.6746 180.347 17.5656C181.886 15.4566 181.202 15.0006 182.741 12.8346C184.28 10.7256 184.622 10.9536 186.047 8.78765C187.472 6.56467 187.358 6.50767 188.897 4.39869ZM163.703 57.7503C164.957 60.2012 166.154 57.6363 168.947 57.6363C171.683 57.6363 171.683 58.0353 174.476 58.0353C177.269 58.0353 177.269 58.0353 180.005 58.0353C182.798 58.0353 183.425 59.6883 185.42 57.8073C187.301 56.0403 185.534 55.2993 185.534 52.7343C185.534 50.1123 185.363 50.1123 185.363 47.5473C185.363 44.9254 185.819 44.9254 185.819 42.3034C185.819 39.6814 185.99 39.6814 185.99 37.0594C185.99 34.4374 185.249 34.4374 185.249 31.8155C185.249 29.1935 188.099 27.0275 185.591 26.4005C182.912 25.7165 184.052 28.7375 182.456 30.9605C180.86 33.1835 180.803 33.1265 179.207 35.3494C177.611 37.5724 177.896 37.7434 176.3 39.9664C174.704 42.1894 174.761 42.2464 173.165 44.4694C171.569 46.6924 171.398 46.5784 169.802 48.8583C168.206 51.1383 168.605 51.4233 166.496 53.2473C164.33 55.2423 162.449 55.2993 163.703 57.7503Z" fill="black"/>
<path d="M249.773 81.9752C249.773 83.6852 249.545 85.2812 248.975 86.7062C248.348 88.2452 247.55 89.6702 246.41 90.7532C245.27 91.8932 243.902 92.8052 242.363 93.3752C240.938 93.9451 239.285 94.1161 237.632 94.1161C235.922 94.1161 234.326 93.9451 232.901 93.3752C231.362 92.8052 229.994 91.8362 228.854 90.6962C227.714 89.5562 226.745 88.2452 226.118 86.7062C225.548 85.2812 225.263 83.6282 225.263 81.9182C225.263 80.2083 225.776 78.6693 226.346 77.2443C226.973 75.7053 227.771 74.3373 228.911 73.2543C230.051 72.1143 231.419 71.3163 232.958 70.6893C234.383 70.1193 235.922 69.7773 237.632 69.7773C239.342 69.7773 240.881 70.0623 242.363 70.6323C243.902 71.2023 245.27 72.1143 246.41 73.1973C247.55 74.3373 248.576 75.5913 249.146 77.1303C249.716 78.6693 249.773 80.2653 249.773 81.9752Z" fill="black"/>
</g>
<defs>
<clipPath id="clip0_733_16059">
<rect width="250" height="94.0492" fill="white" transform="translate(0 0.238281)"/>
</clipPath>
</defs>
</svg>
