<svg width="72" height="72" viewBox="0 0 72 72" fill="none" xmlns="http://www.w3.org/2000/svg">
<mask id="mask0_350_15023" style="mask-type:alpha" maskUnits="userSpaceOnUse" x="0" y="0" width="72" height="72">
<rect y="0.799805" width="72" height="70.4" fill="#D9D9D9"/>
</mask>
<g mask="url(#mask0_350_15023)">
<path d="M15 62.4001C13.35 62.4001 11.9375 61.8257 10.7625 60.6768C9.5875 59.5279 9 58.1468 9 56.5334V15.4668C9 13.8534 9.5875 12.4723 10.7625 11.3234C11.9375 10.1745 13.35 9.6001 15 9.6001H42V15.4668H15V56.5334H57V30.1334H63V56.5334C63 58.1468 62.4125 59.5279 61.2375 60.6768C60.0625 61.8257 58.65 62.4001 57 62.4001H15ZM51 27.2001V21.3334H45V15.4668H51V9.6001H57V15.4668H63V21.3334H57V27.2001H51ZM18 50.6668H54L42.75 36.0001L33.75 47.7334L27 38.9334L18 50.6668Z" fill="white"/>
</g>
</svg>
