<svg width="42" height="42" viewBox="0 0 42 42" fill="none" xmlns="http://www.w3.org/2000/svg">
<path d="M23.2225 28.0002C23.2225 28.6127 22.9425 29.1552 22.54 29.5577C22.1375 29.9602 21.595 30.1702 20.9825 30.1702C20.37 30.1702 19.8275 29.9602 19.425 29.5752C19.0225 29.1727 18.83 28.6127 18.83 28.0177C18.83 27.4052 19.0225 26.8452 19.425 26.4602C19.8275 26.0577 20.3875 25.8477 20.9825 25.8477C21.5775 25.8477 22.12 26.0927 22.505 26.4952C22.925 26.8627 23.2225 27.3877 23.2225 28.0002Z" fill="black"/>
<path d="M21.0699 13.5801C21.0699 14.3501 21.0349 14.3501 21.0349 15.1026C21.0349 15.8551 21.0874 15.8551 21.0874 16.6251C21.0874 17.3951 20.9299 17.3951 20.9299 18.1476C20.9299 18.9176 21.0524 18.9176 21.0524 19.6701C21.0524 20.4401 20.9474 20.4401 20.9474 21.2101C20.9474 21.9801 20.9299 21.9801 20.9299 22.7501" stroke="black" stroke-width="4.375" stroke-miterlimit="10" stroke-linecap="round" stroke-linejoin="round"/>
<path d="M7.26237 21.0003C7.26237 21.5253 7.05237 22.0503 7.10487 22.5753C7.15737 23.1003 7.34987 23.5903 7.47237 24.0978C7.59487 24.6053 7.85737 25.0603 8.03237 25.5503C8.20737 26.0403 8.11987 26.6353 8.34737 27.1078C8.57487 27.5803 8.95987 27.9653 9.22237 28.4203C9.50237 28.8578 9.64237 29.4178 9.95737 29.8203C10.2899 30.2228 10.6399 30.6428 11.0074 31.0103C11.3749 31.3778 11.8999 31.6053 12.3024 31.9203C12.7049 32.2528 13.1424 32.5328 13.5974 32.8128C14.0349 33.0928 14.3674 33.6003 14.8399 33.8278C15.3124 34.0553 15.8024 34.3178 16.2924 34.4928C16.7824 34.6678 17.3249 34.7553 17.8499 34.8778C18.3574 35.0003 18.8999 35.1053 19.4249 35.1578C19.9324 35.2103 20.4924 35.2103 21.0174 35.2103C21.5424 35.2103 22.0499 34.7728 22.5574 34.7203C23.0824 34.6678 23.6074 34.6853 24.1149 34.5803C24.6224 34.4578 25.2174 34.6153 25.7074 34.4403C26.1974 34.2653 26.5824 33.7753 27.0549 33.5478C27.5274 33.3203 27.8949 32.9528 28.3499 32.6728C28.7874 32.3928 29.2249 32.1303 29.6274 31.8153C30.0299 31.4828 30.6949 31.4478 31.0624 31.0628C31.4299 30.6953 31.5874 30.1178 31.9024 29.6978C32.2349 29.2953 32.7599 29.0153 33.0399 28.5778C33.3199 28.1403 33.3024 27.5278 33.5299 27.0553C33.7574 26.5828 33.8099 26.0578 33.9849 25.5678C34.1599 25.0778 34.5274 24.6578 34.6499 24.1503C34.7724 23.6428 34.7899 23.1178 34.8424 22.5928C34.8949 22.0853 34.8949 21.5603 34.8949 21.0353C34.8949 20.5103 34.7199 20.0028 34.6674 19.4953C34.6149 18.9703 34.8249 18.4103 34.7024 17.9028C34.5799 17.3953 34.2824 16.9403 34.1074 16.4503C33.9324 15.9603 33.7924 15.4528 33.5649 14.9803C33.3374 14.5078 32.9349 14.1403 32.6549 13.7028C32.3749 13.2653 32.1299 12.8278 31.7974 12.4078C31.4649 12.0053 31.2549 11.4978 30.8874 11.1303C30.5199 10.7453 30.1524 10.3603 29.7499 10.0278C29.3474 9.69533 28.8574 9.50283 28.4024 9.22283C27.9649 8.94283 27.6149 8.50533 27.1249 8.27783C26.6524 8.05033 26.0224 8.22533 25.5324 8.05033C25.0424 7.87533 24.6049 7.61283 24.0799 7.50783C23.5724 7.38533 23.0824 7.22783 22.5574 7.17533C22.0499 7.10533 21.5249 7.01783 20.9999 7.01783C20.4749 7.01783 19.9149 6.79033 19.4074 6.84283C18.8824 6.89533 18.3574 7.07033 17.8499 7.19283C17.3249 7.29783 16.9224 7.77033 16.4324 7.94533C15.9424 8.12033 15.5049 8.40033 15.0499 8.62783C14.5599 8.85533 14.1224 9.08283 13.6849 9.36283C13.2474 9.64283 12.8099 9.88783 12.3899 10.2203C11.9874 10.5353 11.3749 10.6403 11.0074 11.0078C10.6399 11.3753 10.2374 11.7603 9.92237 12.1628C9.58987 12.5653 9.34487 13.0728 9.08237 13.5103C8.80237 13.9478 8.64487 14.4728 8.41737 14.9453C8.18987 15.4178 7.73487 15.8028 7.55987 16.2928C7.38487 16.7828 7.22737 17.3078 7.10487 17.8153C6.99987 18.3403 7.40237 18.9353 7.34987 19.4603C7.29737 19.9678 7.26237 20.4753 7.26237 21.0003Z" stroke="black" stroke-width="3.5" stroke-miterlimit="10" stroke-linecap="round" stroke-linejoin="round"/>
</svg>
