<svg width="158" height="158" viewBox="0 0 158 158" fill="none" xmlns="http://www.w3.org/2000/svg">
<g opacity="0.5">
<path fill-rule="evenodd" clip-rule="evenodd" d="M13.1663 13.1665C9.53047 13.1665 6.58301 16.114 6.58301 19.7498V118.5C6.58301 122.136 9.53047 125.083 13.1663 125.083H59.2497C62.7417 125.083 66.0907 126.47 68.5599 128.94C71.0292 131.409 72.4164 134.758 72.4164 138.25C72.4164 141.886 75.3638 144.833 78.9997 144.833C82.6356 144.833 85.583 141.886 85.583 138.25C85.583 134.758 86.9702 131.409 89.4394 128.94C91.9087 126.47 95.2577 125.083 98.7497 125.083H144.833C148.469 125.083 151.416 122.136 151.416 118.5V19.7498C151.416 16.114 148.469 13.1665 144.833 13.1665H105.333C96.603 13.1665 88.2305 16.6345 82.0574 22.8076C80.9496 23.9154 79.9289 25.0941 78.9997 26.3329C78.0705 25.0941 77.0498 23.9154 75.9419 22.8076C69.7689 16.6345 61.3964 13.1665 52.6663 13.1665H13.1663ZM85.583 115.444C89.5521 113.153 94.0872 111.916 98.7497 111.916H138.25V26.3332H105.333C100.095 26.3332 95.0715 28.414 91.3677 32.1178C87.6638 35.8217 85.583 40.8451 85.583 46.0832V115.444ZM72.4164 115.444V46.0832C72.4164 40.8451 70.3355 35.8217 66.6317 32.1178C62.9279 28.414 57.9044 26.3332 52.6663 26.3332H19.7497V111.916H59.2497C63.9122 111.916 68.4472 113.153 72.4164 115.444Z" fill="#CCCCCC"/>
</g>
</svg>
