<svg width="24" height="24" viewBox="0 0 24 24" fill="black" xmlns="http://www.w3.org/2000/svg">
<path fill-rule="evenodd" clip-rule="evenodd" d="M18.3468 5.96326C18.8092 6.26566 18.9388 6.88486 18.6364 7.34726L11.8364 17.7473C11.7571 17.8684 11.6525 17.971 11.5298 18.0478C11.4071 18.1245 11.2691 18.1738 11.1255 18.192C10.9819 18.2103 10.836 18.1971 10.698 18.1535C10.5599 18.1099 10.433 18.0368 10.326 17.9393L5.92596 13.9393C5.7297 13.7608 5.61237 13.5117 5.59976 13.2468C5.58716 12.9818 5.68033 12.7227 5.85876 12.5265C6.0372 12.3302 6.28629 12.2129 6.55125 12.2003C6.8162 12.1877 7.0753 12.2808 7.27156 12.4593L10.8044 15.6705L16.9628 6.25286C17.1079 6.03097 17.3353 5.8758 17.5948 5.8215C17.8543 5.76719 18.1248 5.81818 18.3468 5.96326Z" fill="current"/>
</svg>
