<svg width="45" height="45" viewBox="0 0 45 45" fill="none" xmlns="http://www.w3.org/2000/svg">
<path d="M45 22.5C45 34.9264 34.9264 45 22.5 45C10.0736 45 0 34.9264 0 22.5C0 10.0736 10.0736 0 22.5 0C34.9264 0 45 10.0736 45 22.5Z" fill="#2D2D2D"/>
<path d="M33.0915 12.6699C31.1534 11.7982 29.0551 11.1656 26.8693 10.8001C26.8501 10.7995 26.8311 10.8029 26.8134 10.8102C26.7958 10.8175 26.7801 10.8284 26.7673 10.8422C26.505 11.3062 26.199 11.9107 25.995 12.3747C23.6766 12.0372 21.3189 12.0372 19.0005 12.3747C18.7965 11.8967 18.4905 11.3062 18.2136 10.8422C18.1991 10.8141 18.1553 10.8001 18.1116 10.8001C15.9258 11.1656 13.8421 11.7982 11.8895 12.6699C11.8749 12.6699 11.8603 12.6839 11.8457 12.698C7.8822 18.4199 6.78931 23.9872 7.32847 29.4983C7.32847 29.5264 7.34304 29.5545 7.37219 29.5686C9.99512 31.4244 12.516 32.5491 15.0078 33.2942C15.0515 33.3082 15.0953 33.2942 15.1098 33.2661C15.6927 32.4928 16.2173 31.6774 16.669 30.8198C16.6982 30.7636 16.669 30.7074 16.6107 30.6933C15.7801 30.384 14.9933 30.0185 14.2209 29.5967C14.1627 29.5686 14.1627 29.4842 14.2064 29.4421C14.3667 29.3296 14.527 29.2031 14.6872 29.0906C14.7164 29.0625 14.7601 29.0625 14.7892 29.0765C19.802 31.2838 25.2081 31.2838 30.1625 29.0765C30.1917 29.0625 30.2354 29.0625 30.2645 29.0906C30.4248 29.2171 30.5851 29.3296 30.7454 29.4561C30.8037 29.4983 30.8037 29.5826 30.7308 29.6108C29.9731 30.0466 29.1716 30.3981 28.341 30.7074C28.2828 30.7214 28.2682 30.7917 28.2828 30.8339C28.7491 31.6915 29.2736 32.5069 29.8419 33.2801C29.8857 33.2942 29.9294 33.3082 29.9731 33.2942C32.4794 32.5491 35.0004 31.4244 37.6233 29.5686C37.6524 29.5545 37.667 29.5264 37.667 29.4983C38.3082 23.1296 36.6033 17.6045 33.1497 12.698C33.1352 12.6839 33.1206 12.6699 33.0915 12.6699ZM17.4267 26.1382C15.9258 26.1382 14.6727 24.8026 14.6727 23.1578C14.6727 21.5129 15.8967 20.1773 17.4267 20.1773C18.9714 20.1773 20.1954 21.5269 20.1808 23.1578C20.1808 24.8026 18.9568 26.1382 17.4267 26.1382ZM27.5833 26.1382C26.0824 26.1382 24.8292 24.8026 24.8292 23.1578C24.8292 21.5129 26.0533 20.1773 27.5833 20.1773C29.1279 20.1773 30.352 21.5269 30.3374 23.1578C30.3374 24.8026 29.1279 26.1382 27.5833 26.1382Z" fill="#A5A5A5"/>
</svg>
