<svg width="19" height="18" viewBox="0 0 19 18" fill="none" xmlns="http://www.w3.org/2000/svg">
<mask id="mask0_350_12338" style="mask-type:alpha" maskUnits="userSpaceOnUse" x="0" y="0" width="19" height="18">
<rect x="18.5" width="18" height="18" transform="rotate(90 18.5 0)" fill="#D9D9D9"/>
</mask>
<g mask="url(#mask0_350_12338)">
<path d="M9.5 10.856L15.0125 5.34347C15.2 5.15597 15.4219 5.06534 15.6781 5.07159C15.9344 5.07784 16.1562 5.17472 16.3437 5.36222C16.5312 5.54972 16.625 5.77159 16.625 6.02784C16.625 6.28409 16.5312 6.50597 16.3437 6.69347L10.5688 12.4497C10.4187 12.5997 10.25 12.7122 10.0625 12.7872C9.875 12.8622 9.6875 12.8997 9.5 12.8997C9.3125 12.8997 9.125 12.8622 8.9375 12.7872C8.75 12.7122 8.58125 12.5997 8.43125 12.4497L2.65625 6.67472C2.46875 6.48722 2.37812 6.26847 2.38437 6.01847C2.39062 5.76847 2.4875 5.54972 2.675 5.36222C2.8625 5.17472 3.08438 5.08097 3.34063 5.08097C3.59688 5.08097 3.81875 5.17472 4.00625 5.36222L9.5 10.856Z" fill="#717171"/>
</g>
</svg>
