<svg width="15" height="24" viewBox="0 0 15 24" fill="none" xmlns="http://www.w3.org/2000/svg">
<path d="M0.973633 2.5614C0.973633 1.14678 2.12041 0 3.53504 0C4.94966 0 6.09644 1.14678 6.09644 2.5614C6.09644 3.97603 4.94966 5.12281 3.53504 5.12281C2.12041 5.12281 0.973633 3.97603 0.973633 2.5614Z" fill="#CBD2E0"/>
<path d="M0.973633 11.5263C0.973633 10.1117 2.12041 8.96491 3.53504 8.96491C4.94966 8.96491 6.09644 10.1117 6.09644 11.5263C6.09644 12.9409 4.94966 14.0877 3.53504 14.0877C2.12041 14.0877 0.973633 12.9409 0.973633 11.5263Z" fill="#CBD2E0"/>
<path d="M3.53504 17.9298C2.12041 17.9298 0.973633 19.0766 0.973633 20.4912C0.973633 21.9059 2.12041 23.0526 3.53504 23.0526C4.94966 23.0526 6.09644 21.9059 6.09644 20.4912C6.09644 19.0766 4.94966 17.9298 3.53504 17.9298Z" fill="#CBD2E0"/>
<path d="M9.80469 2.5614C9.80469 1.14678 10.9515 0 12.3661 0C13.7807 0 14.9275 1.14678 14.9275 2.5614C14.9275 3.97603 13.7807 5.12281 12.3661 5.12281C10.9515 5.12281 9.80469 3.97603 9.80469 2.5614Z" fill="#CBD2E0"/>
<path d="M9.80469 11.5263C9.80469 10.1117 10.9515 8.96491 12.3661 8.96491C13.7807 8.96491 14.9275 10.1117 14.9275 11.5263C14.9275 12.9409 13.7807 14.0877 12.3661 14.0877C10.9515 14.0877 9.80469 12.9409 9.80469 11.5263Z" fill="#CBD2E0"/>
<path d="M12.3661 17.9298C10.9515 17.9298 9.80469 19.0766 9.80469 20.4912C9.80469 21.9059 10.9515 23.0526 12.3661 23.0526C13.7807 23.0526 14.9275 21.9059 14.9275 20.4912C14.9275 19.0766 13.7807 17.9298 12.3661 17.9298Z" fill="#CBD2E0"/>
</svg>
