<svg xmlns="http://www.w3.org/2000/svg" width="12" height="12" viewBox="0 0 12 12" fill="none">
  <path d="M10.2117 4.3886C9.96674 4.41777 10.0309 4.21944 9.85591 4.04444C9.68091 3.86944 9.69841 3.8461 9.52341 3.6711C9.34841 3.4961 9.33091 3.5136 9.15591 3.3386C8.98091 3.1636 8.98091 3.1636 8.80007 2.98277C8.62507 2.80777 8.63091 2.80194 8.45008 2.6211C8.27508 2.4461 8.25757 2.45777 8.07674 2.28277C7.90174 2.10777 7.71507 2.1661 7.74424 1.91527C7.77924 1.60027 7.97757 1.7111 8.20507 1.4836C8.43257 1.2561 8.40924 1.23277 8.63091 1.0111C8.81757 0.824435 9.10924 0.841935 9.29591 1.02277C9.47674 1.2036 9.47674 1.2036 9.65758 1.3786C9.83841 1.55944 9.82674 1.5711 10.0076 1.75194C10.1884 1.93277 10.2292 1.89194 10.4101 2.07277C10.5909 2.2536 10.5559 2.2886 10.7367 2.46944C10.9176 2.65027 10.9234 2.65027 11.1042 2.8311C11.2909 3.01777 11.3026 3.3036 11.1159 3.49027C10.8884 3.71777 10.8359 3.6711 10.6551 3.9336C10.4626 4.20777 10.5267 4.3536 10.2117 4.3886Z" stroke="white" stroke-width="1.16667" stroke-miterlimit="10" stroke-linecap="round" stroke-linejoin="round"/>
  <path d="M6.5659 3.047C6.3034 3.04117 6.34423 3.23367 6.15757 3.42034C5.9709 3.607 5.96507 3.60117 5.7784 3.78784C5.59173 3.9745 5.63257 4.01534 5.4459 4.202C5.25923 4.38867 5.24173 4.37117 5.05507 4.55784C4.8684 4.7445 4.92673 4.80284 4.74007 4.99534C4.5534 5.182 4.45423 5.08284 4.26757 5.2695C4.0809 5.45617 4.0809 5.462 3.89423 5.64867C3.70757 5.83534 3.74257 5.87034 3.5559 6.057C3.36923 6.24367 3.3459 6.22034 3.15923 6.407C2.97257 6.5995 2.95507 6.582 2.7684 6.7745C2.58173 6.96117 2.6634 7.04284 2.47673 7.23534C2.29007 7.422 2.23173 7.36367 2.03923 7.55617C1.85257 7.74284 1.83507 7.73117 1.64257 7.91784C1.45007 8.1045 1.39757 8.087 1.30423 8.33784C1.19923 8.60617 1.33923 8.6295 1.33923 8.92117C1.33923 9.21284 1.39173 9.21284 1.39173 9.5045C1.39173 9.79617 1.26923 9.79617 1.26923 10.0878C1.26923 10.3795 1.12923 10.4378 1.3334 10.6478C1.53757 10.852 1.60757 10.6653 1.89923 10.6653C2.1909 10.6653 2.1909 10.6887 2.48257 10.6887C2.77423 10.6887 2.77423 10.607 3.0659 10.607C3.35757 10.607 3.35757 10.7178 3.63173 10.6128C3.87673 10.5195 3.8009 10.4378 3.98757 10.2512C4.17423 10.0645 4.1859 10.0762 4.37257 9.8895C4.55923 9.70284 4.55924 9.70284 4.7459 9.51617C4.93257 9.32951 4.99674 9.38784 5.1834 9.20117C5.37007 9.0145 5.3759 9.0145 5.56257 8.82784C5.74923 8.64117 5.66173 8.55367 5.8484 8.367C6.03507 8.18034 6.0409 8.18617 6.22757 7.99367C6.41423 7.807 6.47257 7.86534 6.65923 7.67867C6.8459 7.492 6.85173 7.492 7.0384 7.30534C7.22507 7.11867 7.26007 7.15367 7.44673 6.967C7.6334 6.78034 7.55757 6.69867 7.74423 6.512C7.9309 6.32534 8.01257 6.40117 8.19924 6.2145C8.3859 6.02784 8.39173 6.03367 8.58423 5.84117C8.77673 5.64867 8.94007 5.67784 8.93424 5.4095C8.9284 5.13534 8.7709 5.1645 8.57257 4.972C8.38007 4.7795 8.30423 4.8495 8.11173 4.657C7.91923 4.4645 7.98923 4.38867 7.79673 4.19617C7.60423 4.00367 7.49923 4.10284 7.3009 3.91034C7.1084 3.71784 7.07923 3.71784 6.9334 3.4845C6.76423 3.22784 6.84007 3.05284 6.5659 3.047Z" stroke="white" stroke-width="1.16667" stroke-miterlimit="10" stroke-linecap="round" stroke-linejoin="round"/>
</svg>