<svg width="20" height="20" viewBox="0 0 20 20" fill="none" xmlns="http://www.w3.org/2000/svg">
<path fill-rule="evenodd" clip-rule="evenodd" d="M16.6663 0.732422C15.9765 0.732422 15.3149 1.00647 14.8271 1.49427L6.91042 9.41093C6.80362 9.51773 6.72785 9.65155 6.69122 9.79808L5.85789 13.1314C5.78689 13.4154 5.8701 13.7158 6.07709 13.9228C6.28407 14.1298 6.58448 14.213 6.86845 14.142L10.2018 13.3086C10.3483 13.272 10.4821 13.1962 10.5889 13.0894L18.5056 5.17278C18.9934 4.68498 19.2674 4.02338 19.2674 3.33352C19.2674 2.64367 18.9934 1.98207 18.5056 1.49427C18.0178 1.00647 17.3562 0.732422 16.6663 0.732422ZM16.0056 2.67278C16.1808 2.49754 16.4185 2.39909 16.6663 2.39909C16.9142 2.39909 17.1518 2.49754 17.3271 2.67278C17.5023 2.84802 17.6008 3.0857 17.6008 3.33352C17.6008 3.58135 17.5023 3.81903 17.3271 3.99427L9.57363 11.7477L7.81165 12.1882L8.25214 10.4262L16.0056 2.67278Z" fill="current"/>
<path d="M3.33301 2.5002C2.66997 2.5002 2.03408 2.7636 1.56524 3.23244C1.0964 3.70128 0.833008 4.33716 0.833008 5.0002V16.6669C0.833008 17.3299 1.0964 17.9658 1.56524 18.4346C2.03408 18.9035 2.66997 19.1669 3.33301 19.1669H14.9997C15.6627 19.1669 16.2986 18.9035 16.7674 18.4346C17.2363 17.9658 17.4997 17.3299 17.4997 16.6669V10.8335C17.4997 10.3733 17.1266 10.0002 16.6663 10.0002C16.2061 10.0002 15.833 10.3733 15.833 10.8335V16.6669C15.833 16.8879 15.7452 17.0998 15.5889 17.2561C15.4326 17.4124 15.2207 17.5002 14.9997 17.5002H3.33301C3.11199 17.5002 2.90003 17.4124 2.74375 17.2561C2.58747 17.0998 2.49967 16.8879 2.49967 16.6669V5.0002C2.49967 4.77919 2.58747 4.56723 2.74375 4.41095C2.90003 4.25467 3.11199 4.16687 3.33301 4.16687H9.16634C9.62658 4.16687 9.99967 3.79377 9.99967 3.33354C9.99967 2.8733 9.62658 2.5002 9.16634 2.5002H3.33301Z" fill="current"/>
</svg>
