<svg width="24" height="24" viewBox="0 0 24 24" fill="none" xmlns="http://www.w3.org/2000/svg">
<mask id="mask0_347_12174" style="mask-type:alpha" maskUnits="userSpaceOnUse" x="0" y="0" width="24" height="24">
<rect x="24" y="24" width="24" height="24" transform="rotate(-180 24 24)" fill="#D9D9D9"/>
</mask>
<g mask="url(#mask0_347_12174)">
<path d="M9.52538 12L16.8754 19.35C17.1254 19.6 17.2462 19.8958 17.2379 20.2375C17.2295 20.5792 17.1004 20.875 16.8504 21.125C16.6004 21.375 16.3045 21.5 15.9629 21.5C15.6212 21.5 15.3254 21.375 15.0754 21.125L7.40038 13.425C7.20038 13.225 7.05038 13 6.95038 12.75C6.85038 12.5 6.80038 12.25 6.80038 12C6.80038 11.75 6.85038 11.5 6.95038 11.25C7.05038 11 7.20038 10.775 7.40038 10.575L15.1004 2.875C15.3504 2.625 15.642 2.50417 15.9754 2.5125C16.3087 2.52083 16.6004 2.65 16.8504 2.9C17.1004 3.15 17.2254 3.44583 17.2254 3.7875C17.2254 4.12917 17.1004 4.425 16.8504 4.675L9.52538 12Z" fill="#1C1B1F"/>
</g>
</svg>
