<svg width="11" height="11" viewBox="0 0 11 11" fill="current" xmlns="http://www.w3.org/2000/svg">
<path d="M5.49967 10.5095C5.37329 10.5095 5.24464 10.4869 5.11374 10.4418C4.98283 10.3967 4.86773 10.3244 4.76842 10.2251L3.83405 9.37201C2.87711 8.49631 2.0127 7.62739 1.24082 6.76523C0.468945 5.90308 0.0830078 4.95291 0.0830078 3.91471C0.0830078 3.0661 0.367383 2.35742 0.936133 1.78867C1.50488 1.21992 2.21356 0.935547 3.06217 0.935547C3.54065 0.935547 3.99204 1.03711 4.41634 1.24023C4.84065 1.44336 5.20176 1.72096 5.49967 2.07305C5.79759 1.72096 6.1587 1.44336 6.58301 1.24023C7.00731 1.03711 7.4587 0.935547 7.93717 0.935547C8.78579 0.935547 9.49447 1.21992 10.0632 1.78867C10.632 2.35742 10.9163 3.0661 10.9163 3.91471C10.9163 4.95291 10.5327 5.90534 9.7653 6.77201C8.99794 7.63867 8.12676 8.50985 7.15176 9.38555L6.23093 10.2251C6.13162 10.3244 6.01652 10.3967 5.88561 10.4418C5.75471 10.4869 5.62606 10.5095 5.49967 10.5095Z" fill="current"/>
</svg>
