<svg width="16" height="16" viewBox="0 0 12 13" fill="none" xmlns="http://www.w3.org/2000/svg">
<path d="M6 10.6627C5.88333 10.6627 5.76458 10.6419 5.64375 10.6002C5.52292 10.5585 5.41667 10.4919 5.325 10.4002L4.4625 9.6127C3.57917 8.80436 2.78125 8.00228 2.06875 7.20645C1.35625 6.41061 1 5.53353 1 4.5752C1 3.79186 1.2625 3.1377 1.7875 2.6127C2.3125 2.0877 2.96667 1.8252 3.75 1.8252C4.19167 1.8252 4.60833 1.91895 5 2.10645C5.39167 2.29395 5.725 2.5502 6 2.8752C6.275 2.5502 6.60833 2.29395 7 2.10645C7.39167 1.91895 7.80833 1.8252 8.25 1.8252C9.03333 1.8252 9.6875 2.0877 10.2125 2.6127C10.7375 3.1377 11 3.79186 11 4.5752C11 5.53353 10.6458 6.4127 9.9375 7.2127C9.22917 8.0127 8.425 8.81686 7.525 9.6252L6.675 10.4002C6.58333 10.4919 6.47708 10.5585 6.35625 10.6002C6.23542 10.6419 6.11667 10.6627 6 10.6627Z" fill="#BBBBBB"/>
</svg>
