<svg xmlns="http://www.w3.org/2000/svg" width="18" height="19" viewBox="0 0 18 19" fill="none">
  <mask id="mask0_1214_77462" style="mask-type:alpha" maskUnits="userSpaceOnUse" x="0" y="0" width="18" height="19">
    <rect y="0.5" width="18" height="18" fill="#D9D9D9"/>
  </mask>
  <g mask="url(#mask0_1214_77462)">
    <path d="M4.5 17C4.0875 17 3.73438 16.8531 3.44063 16.5594C3.14688 16.2656 3 15.9125 3 15.5V8C3 7.5875 3.14688 7.23438 3.44063 6.94063C3.73438 6.64687 4.0875 6.5 4.5 6.5H5.25V5C5.25 3.9625 5.61563 3.07812 6.34688 2.34687C7.07812 1.61562 7.9625 1.25 9 1.25C10.0375 1.25 10.9219 1.61562 11.6531 2.34687C12.3844 3.07812 12.75 3.9625 12.75 5V6.5H13.5C13.9125 6.5 14.2656 6.64687 14.5594 6.94063C14.8531 7.23438 15 7.5875 15 8V15.5C15 15.9125 14.8531 16.2656 14.5594 16.5594C14.2656 16.8531 13.9125 17 13.5 17H4.5ZM4.5 15.5H13.5V8H4.5V15.5ZM9 13.25C9.4125 13.25 9.76563 13.1031 10.0594 12.8094C10.3531 12.5156 10.5 12.1625 10.5 11.75C10.5 11.3375 10.3531 10.9844 10.0594 10.6906C9.76563 10.3969 9.4125 10.25 9 10.25C8.5875 10.25 8.23438 10.3969 7.94063 10.6906C7.64687 10.9844 7.5 11.3375 7.5 11.75C7.5 12.1625 7.64687 12.5156 7.94063 12.8094C8.23438 13.1031 8.5875 13.25 9 13.25ZM6.75 6.5H11.25V5C11.25 4.375 11.0312 3.84375 10.5938 3.40625C10.1562 2.96875 9.625 2.75 9 2.75C8.375 2.75 7.84375 2.96875 7.40625 3.40625C6.96875 3.84375 6.75 4.375 6.75 5V6.5Z" fill="current"/>
  </g>
</svg>