<svg width="44" height="45" viewBox="0 0 44 45" fill="none" xmlns="http://www.w3.org/2000/svg">
<path d="M18.333 9.66667C18.333 7.64162 19.9746 6 21.9997 6C24.0247 6 25.6663 7.64162 25.6663 9.66667C25.6663 11.6917 24.0247 13.3333 21.9997 13.3333C19.9746 13.3333 18.333 11.6917 18.333 9.66667Z" fill="current"/>
<path d="M18.333 22.5C18.333 20.475 19.9746 18.8333 21.9997 18.8333C24.0247 18.8333 25.6663 20.475 25.6663 22.5C25.6663 24.525 24.0247 26.1667 21.9997 26.1667C19.9746 26.1667 18.333 24.525 18.333 22.5Z" fill="current"/>
<path d="M21.9997 31.6667C19.9746 31.6667 18.333 33.3083 18.333 35.3333C18.333 37.3584 19.9746 39 21.9997 39C24.0247 39 25.6663 37.3584 25.6663 35.3333C25.6663 33.3083 24.0247 31.6667 21.9997 31.6667Z" fill="current"/>
</svg>
