<svg width="34" height="34" viewBox="0 0 34 34" fill="none" xmlns="http://www.w3.org/2000/svg">
<path d="M22.2521 11.7486C22.8053 12.3018 22.8053 13.1988 22.2521 13.7521L19.0038 17.0003L22.2521 20.2486C22.8053 20.8018 22.8053 21.6988 22.2521 22.2521C21.6988 22.8053 20.8018 22.8053 20.2486 22.2521L17.0003 19.0038L13.7521 22.2521C13.1988 22.8053 12.3018 22.8053 11.7486 22.2521C11.1953 21.6988 11.1953 20.8018 11.7486 20.2486L14.9969 17.0003L11.7486 13.7521C11.1953 13.1988 11.1953 12.3018 11.7486 11.7486C12.3018 11.1953 13.1988 11.1953 13.7521 11.7486L17.0003 14.9969L20.2486 11.7486C20.8018 11.1953 21.6988 11.1953 22.2521 11.7486Z" fill="#C8C8C8"/>
<path fill-rule="evenodd" clip-rule="evenodd" d="M1.41699 17.0003C1.41699 8.39389 8.39389 1.41699 17.0003 1.41699C25.6068 1.41699 32.5837 8.39389 32.5837 17.0003C32.5837 25.6068 25.6068 32.5837 17.0003 32.5837C8.39389 32.5837 1.41699 25.6068 1.41699 17.0003ZM17.0003 4.25033C9.95869 4.25033 4.25033 9.95869 4.25033 17.0003C4.25033 24.042 9.95869 29.7503 17.0003 29.7503C24.042 29.7503 29.7503 24.042 29.7503 17.0003C29.7503 9.95869 24.042 4.25033 17.0003 4.25033Z" fill="#C8C8C8"/>
</svg>
