<svg width="24" height="22" viewBox="0 0 24 22" fill="none" xmlns="http://www.w3.org/2000/svg">
<path fill-rule="evenodd" clip-rule="evenodd" d="M10.5128 4.36261C8.6934 2.54319 5.74355 2.54319 3.92413 4.36261C2.10472 6.18202 2.10472 9.13188 3.92413 10.9513L4.70384 11.731C4.71658 11.7437 4.72895 11.7568 4.74093 11.7701L11.9996 19.0289L19.258 11.7705C19.2701 11.7571 19.2825 11.7439 19.2954 11.731L20.0751 10.9513C21.8945 9.13188 21.8945 6.18202 20.0751 4.36261C18.2557 2.54319 15.3059 2.54319 13.4864 4.36261L12.7067 5.14232C12.3162 5.53284 11.683 5.53284 11.2925 5.14232L10.5128 4.36261ZM20.7481 13.1068C20.736 13.1202 20.7236 13.1333 20.7107 13.1462L12.7078 21.1491C12.5202 21.3367 12.2657 21.4421 12.0004 21.442C12.0002 21.442 12.0007 21.442 12.0004 21.442C12.0002 21.442 11.9991 21.442 11.9988 21.442C11.7335 21.4421 11.4791 21.3367 11.2915 21.1491L3.2886 13.1462C3.2757 13.1333 3.26323 13.1202 3.25118 13.1068L2.50992 12.3655C-0.0905439 9.76505 -0.0905477 5.54886 2.50992 2.9484C5.11038 0.347931 9.32657 0.347931 11.927 2.9484L11.9996 3.021L12.0722 2.9484C14.6727 0.347931 18.8889 0.347931 21.4893 2.9484C24.0898 5.54886 24.0898 9.76505 21.4893 12.3655L20.7481 13.1068Z" fill="current"/>
</svg>
