<svg width="24" height="24" viewBox="0 0 24 24" fill="#FFFFFF" xmlns="http://www.w3.org/2000/svg">
<path d="M6.00005 13.2008C5.68179 13.2008 5.37656 13.0744 5.15152 12.8493C4.92648 12.6243 4.80005 12.319 4.80005 12.0008C4.80005 11.6825 4.92648 11.3773 5.15152 11.1523C5.37656 10.9272 5.68179 10.8008 6.00005 10.8008H18C18.3183 10.8008 18.6235 10.9272 18.8486 11.1523C19.0736 11.3773 19.2 11.6825 19.2 12.0008C19.2 12.319 19.0736 12.6243 18.8486 12.8493C18.6235 13.0744 18.3183 13.2008 18 13.2008H6.00005Z" fill="current"/>
<path d="M10.8 6.00078C10.8 5.68252 10.9265 5.3773 11.1515 5.15225C11.3766 4.92721 11.6818 4.80078 12 4.80078C12.3183 4.80078 12.6235 4.92721 12.8486 5.15225C13.0736 5.3773 13.2 5.68252 13.2 6.00078V18.0008C13.2 18.319 13.0736 18.6243 12.8486 18.8493C12.6235 19.0744 12.3183 19.2008 12 19.2008C11.6818 19.2008 11.3766 19.0744 11.1515 18.8493C10.9265 18.6243 10.8 18.319 10.8 18.0008V6.00078Z" fill="current"/>
</svg>
