<svg width="30" height="31" viewBox="0 0 30 31" fill="none" xmlns="http://www.w3.org/2000/svg">
<path d="M15 9.25C15.6904 9.25 16.25 9.80964 16.25 10.5V14.25H20C20.6904 14.25 21.25 14.8096 21.25 15.5C21.25 16.1904 20.6904 16.75 20 16.75H16.25V20.5C16.25 21.1904 15.6904 21.75 15 21.75C14.3096 21.75 13.75 21.1904 13.75 20.5V16.75H10C9.30964 16.75 8.75 16.1904 8.75 15.5C8.75 14.8096 9.30964 14.25 10 14.25H13.75V10.5C13.75 9.80964 14.3096 9.25 15 9.25Z" fill="#A5A5A5"/>
<path fill-rule="evenodd" clip-rule="evenodd" d="M1.25 15.5C1.25 7.90608 7.40608 1.75 15 1.75C22.5939 1.75 28.75 7.90608 28.75 15.5C28.75 23.0939 22.5939 29.25 15 29.25C7.40608 29.25 1.25 23.0939 1.25 15.5ZM15 4.25C8.7868 4.25 3.75 9.2868 3.75 15.5C3.75 21.7132 8.7868 26.75 15 26.75C21.2132 26.75 26.25 21.7132 26.25 15.5C26.25 9.2868 21.2132 4.25 15 4.25Z" fill="#A5A5A5"/>
</svg>
