<svg width="12" height="12" viewBox="0 0 12 12" fill="none" xmlns="http://www.w3.org/2000/svg">
<mask id="mask0_347_12134" style="mask-type:alpha" maskUnits="userSpaceOnUse" x="0" y="0" width="12" height="12">
<rect width="12" height="12" fill="#D9D9D9"/>
</mask>
<g mask="url(#mask0_347_12134)">
<path d="M7.00303 5.8055L3.44706 2.24953C3.32611 2.12858 3.26765 1.98545 3.27168 1.82015C3.27571 1.65485 3.3382 1.51173 3.45915 1.39078C3.58011 1.26983 3.72323 1.20935 3.88853 1.20935C4.05383 1.20935 4.19696 1.26983 4.31791 1.39078L8.03111 5.11608C8.12788 5.21284 8.20045 5.3217 8.24883 5.44265C8.29721 5.5636 8.3214 5.68455 8.3214 5.8055C8.3214 5.92645 8.29721 6.0474 8.24883 6.16835C8.20045 6.28931 8.12788 6.39816 8.03111 6.49492L4.30581 10.2202C4.18486 10.3412 4.04375 10.3996 3.88248 10.3956C3.72122 10.3916 3.58011 10.3291 3.45915 10.2081C3.3382 10.0872 3.27773 9.94405 3.27773 9.77875C3.27773 9.61345 3.3382 9.47033 3.45915 9.34938L7.00303 5.8055Z" fill="#C1C1C1"/>
</g>
</svg>
