<svg width="21" height="21" viewBox="0 0 21 21" fill="#979797" xmlns="http://www.w3.org/2000/svg">
<path d="M19.9642 18.99L14.6669 13.6926C15.9399 12.1644 16.5747 10.2042 16.4392 8.21983C16.3038 6.23548 15.4085 4.37973 13.9397 3.03865C12.4708 1.69756 10.5415 0.974393 8.55302 1.01957C6.56456 1.06476 4.67007 1.87481 3.26365 3.28123C1.85723 4.68764 1.04718 6.58214 1.002 8.5706C0.956815 10.5591 1.67999 12.4884 3.02107 13.9572C4.36216 15.4261 6.2179 16.3213 8.20225 16.4568C10.1866 16.5922 12.1468 15.9575 13.675 14.6845L18.9724 19.9818L19.9642 18.99ZM2.42798 8.75861C2.42798 7.51001 2.79824 6.28945 3.49193 5.25127C4.18561 4.21309 5.17158 3.40393 6.32514 2.92611C7.4787 2.4483 8.74804 2.32328 9.97265 2.56687C11.1973 2.81046 12.3221 3.41172 13.205 4.29461C14.0879 5.17751 14.6892 6.30239 14.9328 7.527C15.1764 8.75161 15.0514 10.021 14.5735 11.1745C14.0957 12.3281 13.2866 13.314 12.2484 14.0077C11.2102 14.7014 9.98964 15.0717 8.74104 15.0717C7.06728 15.0698 5.46261 14.4041 4.27909 13.2206C3.09556 12.037 2.42984 10.4324 2.42798 8.75861Z" fill="current" stroke="current" stroke-width="0.70145"/>
</svg>
