<svg width="24" height="24" viewBox="0 0 25 25" fill="none" xmlns="http://www.w3.org/2000/svg">
<path d="M20.7573 13.2072C21.9358 12.0287 22.5251 10.6144 22.5251 8.96453C22.5251 7.31461 21.9358 5.9004 20.7573 4.72189C19.5788 3.54338 18.1646 2.95412 16.5146 2.95412C14.8647 2.95412 13.4505 3.54338 12.272 4.72189C11.4942 5.49971 10.9756 6.40716 10.7164 7.44425C10.4571 8.48134 10.4571 9.50664 10.7164 10.5202L4.49383 16.7427C4.10493 17.1316 3.91047 17.603 3.91047 18.1569C3.91047 18.7108 4.10492 19.1822 4.49383 19.5711L5.90805 20.9853C6.29696 21.3743 6.76836 21.5687 7.32226 21.5687C7.87616 21.5687 8.34757 21.3743 8.73647 20.9853L9.44358 21.6925C9.83249 22.0814 10.3039 22.2758 10.8578 22.2758C11.4117 22.2758 11.8831 22.0814 12.272 21.6925L13.6862 20.2782C14.0751 19.8893 14.2696 19.4179 14.2696 18.864C14.2696 18.3101 14.0751 17.8387 13.6862 17.4498L12.9791 16.7427L14.959 14.7628C15.9725 15.0221 16.9978 15.0221 18.0349 14.7628C19.072 14.5035 19.9795 13.985 20.7573 13.2072ZM19.3431 11.793C18.5653 12.5708 17.702 12.9567 16.7533 12.9508C15.8046 12.945 15.0533 12.7593 14.4994 12.394L10.1507 16.7427L12.272 18.864L10.8578 20.2782L8.73647 18.1569L7.32226 19.5711L5.90805 18.1569L13.0852 10.9798C12.7198 10.4259 12.5342 9.67458 12.5283 8.72588C12.5224 7.77718 12.9084 6.91392 13.6862 6.1361C14.464 5.35828 15.4068 4.96938 16.5146 4.96938C17.6224 4.96938 18.5653 5.35828 19.3431 6.1361C20.1209 6.91392 20.5098 7.85673 20.5098 8.96453C20.5098 10.0723 20.1209 11.0151 19.3431 11.793ZM17.9289 10.3787C17.54 10.7677 17.0685 10.9621 16.5146 10.9621C15.9607 10.9621 15.4893 10.7677 15.1004 10.3787C14.7115 9.98983 14.5171 9.51843 14.5171 8.96453C14.5171 8.41063 14.7115 7.93922 15.1004 7.55032C15.4893 7.16141 15.9607 6.96695 16.5146 6.96695C17.0685 6.96695 17.54 7.16141 17.9289 7.55032C18.3178 7.93922 18.5122 8.41063 18.5122 8.96453C18.5122 9.51843 18.3178 9.98983 17.9289 10.3787Z" fill="#1C1B1F"/>
</svg>
