<svg width="24" height="24" viewBox="0 0 25 25" fill="none" xmlns="http://www.w3.org/2000/svg">
<path d="M21.1436 13.5017H9.97427C9.69045 13.5017 9.45254 13.4057 9.26054 13.2137C9.06854 13.0217 8.97254 12.7838 8.97254 12.5C8.97254 12.2162 9.06854 11.9783 9.26054 11.7863C9.45254 11.5943 9.69045 11.4983 9.97427 11.4983H21.1436L20.2921 10.6468C20.0918 10.4464 19.9958 10.2127 20.0041 9.94556C20.0125 9.67843 20.1085 9.4447 20.2921 9.24435C20.4925 9.044 20.7304 8.93965 21.0059 8.93131C21.2814 8.92296 21.5193 9.01896 21.7196 9.21931L24.2991 11.7988C24.4994 11.9991 24.5996 12.2329 24.5996 12.5C24.5996 12.7671 24.4994 13.0009 24.2991 13.2012L21.7196 15.7807C21.5193 15.981 21.2814 16.077 21.0059 16.0687C20.7304 16.0603 20.4925 15.956 20.2921 15.7556C20.1085 15.5553 20.0125 15.3215 20.0041 15.0544C19.9958 14.7873 20.0918 14.5535 20.2921 14.3532L21.1436 13.5017ZM15.9847 8.49305V5.48784H5.96734V19.5121H15.9847V16.5069C15.9847 16.2231 16.0807 15.9852 16.2727 15.7932C16.4647 15.6012 16.7026 15.5052 16.9864 15.5052C17.2702 15.5052 17.5082 15.6012 17.7002 15.7932C17.8922 15.9852 17.9882 16.2231 17.9882 16.5069V19.5121C17.9882 20.0631 17.792 20.5347 17.3996 20.9271C17.0073 21.3194 16.5356 21.5156 15.9847 21.5156H5.96734C5.41638 21.5156 4.94473 21.3194 4.55239 20.9271C4.16004 20.5347 3.96387 20.0631 3.96387 19.5121V5.48784C3.96387 4.93689 4.16004 4.46524 4.55239 4.07289C4.94473 3.68055 5.41638 3.48438 5.96734 3.48438H15.9847C16.5356 3.48438 17.0073 3.68055 17.3996 4.07289C17.792 4.46524 17.9882 4.93689 17.9882 5.48784V8.49305C17.9882 8.77687 17.8922 9.01478 17.7002 9.20678C17.5082 9.39878 17.2702 9.49478 16.9864 9.49478C16.7026 9.49478 16.4647 9.39878 16.2727 9.20678C16.0807 9.01478 15.9847 8.77687 15.9847 8.49305Z" fill="#1C1B1F"/>
</svg>
