<svg xmlns="http://www.w3.org/2000/svg" width="16" height="16" viewBox="0 0 16 16" fill="none">
  <mask id="mask0_1101_75381" style="mask-type:alpha" maskUnits="userSpaceOnUse" x="0" y="0" width="16" height="16">
    <rect width="16" height="16" fill="black"/>
  </mask>
  <g mask="url(#mask0_1101_75381)">
    <path d="M4.66634 13.9988V5.3321L8.66634 1.36543C8.83301 1.19876 9.03023 1.10154 9.25801 1.07376C9.48579 1.04599 9.70523 1.08765 9.91634 1.19876C10.1275 1.30987 10.283 1.46543 10.383 1.66543C10.483 1.86543 10.5052 2.07099 10.4497 2.2821L9.69967 5.3321H13.9997C14.3552 5.3321 14.6663 5.46543 14.933 5.7321C15.1997 5.99876 15.333 6.30987 15.333 6.66543V7.99876C15.333 8.07654 15.3219 8.15987 15.2997 8.24876C15.2775 8.33765 15.2552 8.42099 15.233 8.49876L13.233 13.1988C13.133 13.421 12.9663 13.6099 12.733 13.7654C12.4997 13.921 12.2552 13.9988 11.9997 13.9988H4.66634ZM5.99967 5.89876V12.6654H11.9997L13.9997 7.99876V6.66543H7.99967L8.89967 2.99876L5.99967 5.89876ZM2.66634 13.9988C2.29967 13.9988 1.98579 13.8682 1.72467 13.6071C1.46356 13.346 1.33301 13.0321 1.33301 12.6654V6.66543C1.33301 6.29876 1.46356 5.98487 1.72467 5.72376C1.98579 5.46265 2.29967 5.3321 2.66634 5.3321H4.66634V6.66543H2.66634V12.6654H4.66634V13.9988H2.66634Z" fill="current"/>
  </g>
</svg>