<svg xmlns="http://www.w3.org/2000/svg" width="16" height="16" viewBox="0 0 16 16" fill="none">
  <mask id="mask0_1131_75345" style="mask-type:alpha" maskUnits="userSpaceOnUse" x="0" y="0" width="16" height="16">
    <rect width="16" height="16" fill="black"/>
  </mask>
  <g mask="url(#mask0_1131_75345)">
    <path d="M12 14H5.33337V5.33332L10 0.666656L10.8334 1.49999C10.9112 1.57777 10.975 1.68332 11.025 1.81666C11.075 1.94999 11.1 2.07777 11.1 2.19999V2.43332L10.3667 5.33332H14C14.3556 5.33332 14.6667 5.46666 14.9334 5.73332C15.2 5.99999 15.3334 6.3111 15.3334 6.66666V7.99999C15.3334 8.07777 15.325 8.1611 15.3084 8.24999C15.2917 8.33888 15.2667 8.42221 15.2334 8.49999L13.2334 13.2C13.1334 13.4222 12.9667 13.6111 12.7334 13.7667C12.5 13.9222 12.2556 14 12 14ZM4.00004 5.33332V14H1.33337V5.33332H4.00004Z" fill="current"/>
  </g>
</svg>