<svg width="24" height="24" viewBox="0 0 25 25" fill="none" xmlns="http://www.w3.org/2000/svg">
<mask id="mask0_390_2453" style="mask-type:alpha" maskUnits="userSpaceOnUse" x="0" y="0" width="25" height="25">
<rect x="0.958008" y="0.5" width="24" height="24" fill="#D9D9D9"/>
</mask>
<g mask="url(#mask0_390_2453)">
<path d="M5.95801 19.5H7.35801L15.983 10.875L14.583 9.475L5.95801 18.1V19.5ZM20.258 9.425L16.008 5.225L17.408 3.825C17.7913 3.44167 18.2622 3.25 18.8205 3.25C19.3788 3.25 19.8497 3.44167 20.233 3.825L21.633 5.225C22.0163 5.60833 22.2163 6.07083 22.233 6.6125C22.2497 7.15417 22.0663 7.61667 21.683 8L20.258 9.425ZM4.95801 21.5C4.67467 21.5 4.43717 21.4042 4.24551 21.2125C4.05384 21.0208 3.95801 20.7833 3.95801 20.5V17.675C3.95801 17.5417 3.98301 17.4125 4.03301 17.2875C4.08301 17.1625 4.15801 17.05 4.25801 16.95L14.558 6.65L18.808 10.9L8.50801 21.2C8.40801 21.3 8.29551 21.375 8.17051 21.425C8.04551 21.475 7.91634 21.5 7.78301 21.5H4.95801Z" fill="#1C1B1F"/>
</g>
</svg>
