<svg width="16" height="16" viewBox="0 0 12 13" fill="none" xmlns="http://www.w3.org/2000/svg">
<path d="M6 8C6.82843 8 7.5 7.32843 7.5 6.5C7.5 5.67157 6.82843 5 6 5C5.17157 5 4.5 5.67157 4.5 6.5C4.5 7.32843 5.17157 8 6 8Z" fill="#BBBBBB"/>
<path d="M11.6023 6.3725C11.1613 5.23162 10.3956 4.24498 9.39989 3.53453C8.4042 2.82408 7.22215 2.42096 5.99984 2.375C4.77753 2.42096 3.59549 2.82408 2.59979 3.53453C1.6041 4.24498 0.838401 5.23162 0.39734 6.3725C0.367553 6.45489 0.367553 6.54511 0.39734 6.6275C0.838401 7.76838 1.6041 8.75502 2.59979 9.46547C3.59549 10.1759 4.77753 10.579 5.99984 10.625C7.22215 10.579 8.4042 10.1759 9.39989 9.46547C10.3956 8.75502 11.1613 7.76838 11.6023 6.6275C11.6321 6.54511 11.6321 6.45489 11.6023 6.3725ZM5.99984 8.9375C5.51775 8.9375 5.04648 8.79454 4.64564 8.52671C4.24479 8.25887 3.93237 7.87819 3.74788 7.43279C3.5634 6.9874 3.51513 6.4973 3.60918 6.02447C3.70323 5.55164 3.93538 5.11732 4.27627 4.77643C4.61716 4.43554 5.05148 4.20339 5.52431 4.10934C5.99714 4.01528 6.48724 4.06356 6.93263 4.24804C7.37803 4.43253 7.75871 4.74495 8.02655 5.1458C8.29438 5.54664 8.43734 6.01791 8.43734 6.5C8.43635 7.14616 8.17922 7.76557 7.72232 8.22248C7.26541 8.67938 6.646 8.93651 5.99984 8.9375Z" fill="#BBBBBB"/>
</svg>
