<svg width="64" height="64" viewBox="0 0 64 64" fill="none" xmlns="http://www.w3.org/2000/svg">
<path d="M53.3332 32V18.6666H58.6666V34.6666H53.3332M53.3332 45.3333H58.6666V40H53.3332M26.6666 34.6666C33.7866 34.6666 47.9999 38.24 47.9999 45.3333V53.3333H5.33325V45.3333C5.33325 38.24 19.5466 34.6666 26.6666 34.6666ZM26.6666 10.6666C29.4956 10.6666 32.2087 11.7904 34.2091 13.7908C36.2094 15.7912 37.3333 18.5043 37.3333 21.3333C37.3333 24.1623 36.2094 26.8754 34.2091 28.8758C32.2087 30.8762 29.4956 32 26.6666 32C23.8376 32 21.1245 30.8762 19.1241 28.8758C17.1237 26.8754 15.9999 24.1623 15.9999 21.3333C15.9999 18.5043 17.1237 15.7912 19.1241 13.7908C21.1245 11.7904 23.8376 10.6666 26.6666 10.6666ZM26.6666 39.7333C18.7466 39.7333 10.3999 43.6266 10.3999 45.3333V48.2666H42.9333V45.3333C42.9333 43.6266 34.5866 39.7333 26.6666 39.7333ZM26.6666 15.7333C25.1814 15.7333 23.757 16.3233 22.7068 17.3735C21.6566 18.4237 21.0666 19.8481 21.0666 21.3333C21.0666 22.8185 21.6566 24.2429 22.7068 25.2931C23.757 26.3433 25.1814 26.9333 26.6666 26.9333C28.1518 26.9333 29.5762 26.3433 30.6264 25.2931C31.6766 24.2429 32.2666 22.8185 32.2666 21.3333C32.2666 19.8481 31.6766 18.4237 30.6264 17.3735C29.5762 16.3233 28.1518 15.7333 26.6666 15.7333Z" fill="#1F2937"/>
</svg>
